<svg width="601" height="448" viewBox="0 0 601 448" fill="none" xmlns="http://www.w3.org/2000/svg">
<path d="M562.661 52.3746C565.117 55.8329 565.915 60.4031 565.11 66.0027C564.305 71.6054 561.899 78.196 558.001 85.6333C550.207 100.506 536.501 118.666 517.96 138.917C480.882 179.412 424.54 228.187 357.722 275.633C290.904 323.08 226.285 360.198 175.832 381.857C150.602 392.688 128.94 399.643 112.329 402.099C104.022 403.328 97.007 403.427 91.452 402.341C85.8999 401.256 81.8482 398.995 79.3925 395.537C76.9369 392.079 76.1384 387.509 76.9435 381.909C77.7489 376.306 80.1549 369.716 84.0524 362.278C91.8466 347.405 105.552 329.245 124.094 308.995C161.172 268.5 217.513 219.725 284.331 172.279C351.149 124.832 415.769 87.714 466.221 66.0547C491.451 55.2235 513.114 48.269 529.725 45.8124C538.031 44.5839 545.046 44.4846 550.602 45.5707C556.154 46.6563 560.205 48.9163 562.661 52.3746Z" stroke="black"/>
<path d="M37.3927 52.3746C34.9371 55.8329 34.1387 60.4031 34.9437 66.0027C35.7491 71.6054 38.1551 78.196 42.0526 85.6333C49.8468 100.506 63.5523 118.666 82.094 138.917C119.172 179.412 175.513 228.187 242.332 275.633C309.15 323.08 373.769 360.198 424.221 381.857C449.452 392.688 471.114 399.643 487.725 402.099C496.031 403.328 503.047 403.427 508.602 402.341C514.154 401.256 518.206 398.995 520.661 395.537C523.117 392.079 523.915 387.509 523.11 381.909C522.305 376.306 519.899 369.716 516.001 362.278C508.207 347.405 494.502 329.245 475.96 308.995C438.882 268.5 382.54 219.725 315.722 172.279C248.904 124.832 184.285 87.714 133.832 66.0547C108.602 55.2235 86.9399 48.269 70.3289 45.8124C62.0226 44.5839 55.0072 44.4846 49.4522 45.5707C43.9001 46.6563 39.8484 48.9163 37.3927 52.3746Z" stroke="black"/>
<path d="M307 20.5C306.631 20.5 306.179 20.7235 305.648 21.3704C305.123 22.0109 304.582 22.9944 304.037 24.3331C302.949 27.0057 301.888 30.9762 300.873 36.128C298.845 46.4237 297.015 61.3396 295.477 79.7917C292.403 116.691 290.5 167.676 290.5 224C290.5 280.324 292.403 331.309 295.477 368.208C297.015 386.66 298.845 401.576 300.873 411.872C301.888 417.024 302.949 420.994 304.037 423.667C304.582 425.006 305.123 425.989 305.648 426.63C306.179 427.276 306.631 427.5 307 427.5C307.369 427.5 307.821 427.276 308.352 426.63C308.877 425.989 309.418 425.006 309.963 423.667C311.051 420.994 312.112 417.024 313.127 411.872C315.155 401.576 316.985 386.66 318.523 368.208C321.597 331.309 323.5 280.324 323.5 224C323.5 167.676 321.597 116.691 318.523 79.7917C316.985 61.3396 315.155 46.4237 313.127 36.128C312.112 30.9762 311.051 27.0057 309.963 24.3331C309.418 22.9944 308.877 22.0109 308.352 21.3704C307.821 20.7235 307.369 20.5 307 20.5Z" stroke="black"/>
</svg>
